<svg width="65" height="65" viewBox="0 0 65 65" fill="none" xmlns="http://www.w3.org/2000/svg">
<circle cx="32.5" cy="32.5" r="32.5" fill="white"/>
<path d="M10.311 39.5001L23.311 50.5001C24.7293 51.7002 26.235 50.0001 26.8105 49L31.3105 43C30.8105 43.1667 31.8105 41.2 39.8105 32C49.8105 20.5 50.8105 22 55.8105 19C57.0105 15 53.9772 14 52.3105 14C51.6439 14.3333 49.8105 15.3 47.8105 16.5C42.6105 19.7 34.6439 28.1667 31.3105 32L23.311 42C22.4775 41.1667 19.6106 38.5001 14.811 34.5001C9.61099 33.7001 9.64433 37.5001 10.311 39.5001Z" fill="#FF1788" stroke="#FF1788"/>
</svg>
